# xmcd CD database file generated by OrangeCD 6.4
#
# Track frame offsets:
#	150
#	13210
#	23488
#	34481
#	47702
#	57738
#	67257
#	78038
#	89278
#	97696
#	109342
#	121790
#	132115
#	144317
#	156459
#	167444
#	180853
#	191898
#	200697
#	211804
#	221702
#	233550
#	244164
#	256180
#
# Disc length: 3575 seconds
#
# Revision: 1
# Processed by: cddbd v1.5.2PL0 Copyright (c) Steve Scherf et al.
# Submitted via: OrangeCD 6.4
#
DISCID=4c0df518
DTITLE=Various Artist - Dial 3 For Nothern Soul
DYEAR=2010
DGENRE=Soul
TTITLE0=Joe Tex - I Wanna Be Free
TTITLE1=Bobby Marchan - Funny Style
TTITLE2=Barbara Mills - Queen Of Fools
TTITLE3=Jerry Fuller - Double Life
TTITLE4=Ron Holden - I'll Forgive And Forget
TTITLE5=Clarence Reid - There'll Come A Day
TTITLE6=Little Archie - All I Have To Do
TTITLE7=Frankie and Johnny - I'll Hold On You
TTITLE8=Paul Kelly - Chills And Fever
TTITLE9=Charlie Romans - Twenty Four Hour Service
TTITLE10=The Delicates - Stop Shovin' Me Around
TTITLE11=The Carnations - (Just To Keep Up On) The Lovin' Side
TTITLE12=Jerry Fuller - I Get Carried Away
TTITLE13=Joe Tex - Old Time Lover
TTITLE14=Johnny Wyatt - I Wouldn't Change A Thing About You
TTITLE15=Charles Lamont and The Extremes - I've Got To Keep Movin'
TTITLE16=Tommy Ray Tucker - Cry, Cry, Cry
TTITLE17=Johnny Wyatt - Any Kind Of Love
TTITLE18=Jimmy Seals - The Yesterday Of Our Love
TTITLE19=Paul Kelly - Since I Found You
TTITLE20=Gail Wynters - You've Got The Power
TTITLE21=The Newbeats - I'm A Teardrop
TTITLE22=P.W. Cannon - Beating Of A Lonely Heart
TTITLE23=The Magnificent 7 - Never Will I (Make My Baby Cry)
EXTD=
EXTT0=
EXTT1=
EXTT2=
EXTT3=
EXTT4=
EXTT5=
EXTT6=
EXTT7=
EXTT8=
EXTT9=
EXTT10=
EXTT11=
EXTT12=
EXTT13=
EXTT14=
EXTT15=
EXTT16=
EXTT17=
EXTT18=
EXTT19=
EXTT20=
EXTT21=
EXTT22=
EXTT23=
PLAYORDER=
